{"title":"The.Twilight.Saga.Breaking.Dawn.Part.1.2011.720p.x264.Feel-Free","uid":6990645,"size":2937685328,"categoryP":"video","categoryS":"hd___movies","magnet":"?xt=urn:btih:5276245a7eadb6c5a18670ab1a465e2e677d969b&amp;dn=The.Twilight.Saga.Breaking.Dawn.Part.1.2011.720p.x264.Feel-Free&amp;tr=udp%3A%2F%2Ftracker.openbittorrent.com%3A80&amp;tr=udp%3A%2F%2Fopen.demonii.com%3A1337&amp;tr=udp%3A%2F%2Ftracker.coppersurfer.tk%3A6969&amp;tr=udp%3A%2F%2Fexodus.desync.com%3A6969","seeders":2,"leechers":1,"uploader":"Coolbaba25","files":12,"time":1327690257,"description":"Genre:Adventure | Drama | Fantasy\nLanguage:English\nIMDb: &lt;a href=&quot; http://www.imdb.com/title/tt1324999/&quot; rel=&quot;nofollow&quot; target=&quot;_NEW&quot;&gt; http://www.imdb.com/title/tt1324999/&lt;/a&gt;\nSource:1080p.BluRay.x264.DTS.ES.HDChina Thanks!\nSubtitles:English\nEncoder:Tony &lt;a href=&quot;\nhttp://img841.imageshack.us/img841/1131/vlcsnap2012012719h05m57.png&quot; rel=&quot;nofollow&quot; target=&quot;_NEW&quot;&gt;\nhttp://img841.imageshack.us/img841/1131/vlcsnap2012012719h05m57.png&lt;/a&gt; &lt;a href=&quot;\nhttp://img26.imageshack.us/img26/7348/vlcsnap2012012719h03m22.png&quot; rel=&quot;nofollow&quot; target=&quot;_NEW&quot;&gt;\nhttp://img26.imageshack.us/img26/7348/vlcsnap2012012719h03m22.png&lt;/a&gt; &lt;a href=&quot;\nhttp://img26.imageshack.us/img26/7348/vlcsnap2012012719h03m22.png&quot; rel=&quot;nofollow&quot; target=&quot;_NEW&quot;&gt;\nhttp://img26.imageshack.us/img26/7348/vlcsnap2012012719h03m22.png&lt;/a&gt;\nMPEG-4\nFormat profile : Base Media\nCodec ID : isom\nFile size : 2.73 GiB\nDuration : 1h 57mn\nOverall bit rate mode : Variable\nOverall bit rate : 3 335 Kbps\n\nVideo\nID : 1\nFormat : AVC\nFormat/Info : Advanced Video Codec\nFormat profile : &lt;a class=&quot;__cf_email__&quot; href=&quot;/cdn-cgi/l/email-protection&quot; data-cfemail=&quot;ce86a7a9a68e82fde0ff&quot;&gt;[email&amp;#160;protected]&lt;/a&gt;&lt;script cf-hash='f9e31' type=&quot;text/javascript&quot;&gt;\n/* &lt;![CDATA[ */!function(){try{var t=&quot;currentScript&quot;in document?document.currentScript:function(){for(var t=document.getElementsByTagName(&quot;script&quot;),e=t.length;e--;)if(t[e].getAttribute(&quot;cf-hash&quot;))return t[e]}();if(t&amp;&amp;t.previousSibling){var e,r,n,i,c=t.previousSibling,a=c.getAttribute(&quot;data-cfemail&quot;);if(a){for(e=&quot;&quot;,r=parseInt(a.substr(0,2),16),n=2;a.length-n;n+=2)i=parseInt(a.substr(n,2),16)^r,e+=String.fromCharCode(i);e=document.createTextNode(e),c.parentNode.replaceChild(e,c)}}}catch(u){}}();/* ]]&gt; */&lt;/script&gt;\nFormat settings, CABAC : Yes\nFormat settings, ReFrames : 3 frames\nCodec ID : avc1\nCodec ID/Info : Advanced Video Coding\nDuration : 1h 57mn\nBit rate : 3 000 Kbps\nMaximum bit rate : 17.6 Mbps\nWidth : 1 280 pixels\nHeight : 536 pixels\nDisplay aspect ratio : 2.40:1\nFrame rate mode : Constant\nFrame rate : 23.976 fps\nColor space : YUV\nChroma subsampling : 4:2:0\nBit depth : 8 bits\nScan type : Progressive\nBits/(Pixel*Frame) : 0.182\nStream size : 2.36 GiB (87%)\nWriting library : x264\n\n\nAudio\nID : 2\nFormat : AAC\nFormat/Info : Advanced Audio Codec\nFormat profile : LC\nCodec ID : 40\nDuration : 1h 57mn\nBit rate mode : Variable\nBit rate : 443 Kbps\nMaximum bit rate : 570 Kbps\nChannel(s) : 6 channels\nChannel positions : Front: L C R, Side: L R, LFE\nSampling rate : 48.0 KHz\nCompression mode : Lossy\nStream size : 372 MiB (13%)\n\n\nPlot:\nThe Quileute and the Volturi close in on expecting parents Edward and Bella, whose unborn child poses different threats to the wolf pack and vampire coven","torrent":{"xt":"urn:btih:5276245a7eadb6c5a18670ab1a465e2e677d969b","amp;dn":"The.Twilight.Saga.Breaking.Dawn.Part.1.2011.720p.x264.Feel-Free","amp;tr":["udp%3A%2F%2Ftracker.openbittorrent.com%3A80","udp%3A%2F%2Fopen.demonii.com%3A1337","udp%3A%2F%2Ftracker.coppersurfer.tk%3A6969","udp%3A%2F%2Fexodus.desync.com%3A6969"],"infoHash":"5276245a7eadb6c5a18670ab1a465e2e677d969b","infoHashBuffer":{"type":"Buffer","data":[82,118,36,90,126,173,182,197,161,134,112,171,26,70,94,46,103,125,150,155]},"announce":[],"urlList":[]}}